<svg xmlns="http://www.w3.org/2000/svg" xmlns:xlink="http://www.w3.org/1999/xlink" width="960" zoomAndPan="magnify" viewBox="0 0 720 719.999996" height="960" preserveAspectRatio="xMidYMid meet" version="1.0"><defs><clipPath id="7395413493"><path d="M 193.699219 0 L 526.300781 0 C 529.472656 0 532.640625 0.078125 535.804688 0.234375 C 538.972656 0.390625 542.132812 0.621094 545.289062 0.933594 C 548.441406 1.242188 551.585938 1.632812 554.722656 2.097656 C 557.859375 2.5625 560.980469 3.101562 564.089844 3.722656 C 567.199219 4.339844 570.292969 5.035156 573.367188 5.804688 C 576.441406 6.574219 579.496094 7.421875 582.53125 8.339844 C 585.5625 9.261719 588.570312 10.253906 591.554688 11.324219 C 594.542969 12.390625 597.496094 13.53125 600.425781 14.746094 C 603.355469 15.957031 606.253906 17.242188 609.117188 18.597656 C 611.984375 19.953125 614.816406 21.378906 617.609375 22.871094 C 620.40625 24.367188 623.164062 25.929688 625.882812 27.558594 C 628.601562 29.1875 631.277344 30.882812 633.914062 32.644531 C 636.550781 34.40625 639.140625 36.230469 641.6875 38.117188 C 644.234375 40.007812 646.730469 41.957031 649.183594 43.96875 C 651.632812 45.980469 654.03125 48.046875 656.382812 50.175781 C 658.730469 52.304688 661.027344 54.492188 663.265625 56.734375 C 665.507812 58.972656 667.695312 61.269531 669.824219 63.617188 C 671.953125 65.96875 674.019531 68.367188 676.03125 70.816406 C 678.042969 73.269531 679.992188 75.765625 681.882812 78.3125 C 683.769531 80.859375 685.59375 83.449219 687.355469 86.085938 C 689.117188 88.722656 690.8125 91.398438 692.441406 94.117188 C 694.070312 96.835938 695.632812 99.59375 697.128906 102.390625 C 698.621094 105.183594 700.046875 108.015625 701.402344 110.882812 C 702.757812 113.746094 704.042969 116.644531 705.253906 119.574219 C 706.46875 122.5 707.609375 125.457031 708.675781 128.441406 C 709.746094 131.429688 710.738281 134.4375 711.660156 137.46875 C 712.578125 140.503906 713.425781 143.558594 714.195312 146.632812 C 714.964844 149.707031 715.660156 152.800781 716.277344 155.910156 C 716.898438 159.019531 717.4375 162.140625 717.902344 165.277344 C 718.367188 168.414062 718.757812 171.558594 719.066406 174.710938 C 719.378906 177.867188 719.609375 181.027344 719.765625 184.195312 C 719.921875 187.359375 720 190.527344 720 193.699219 L 720 526.300781 C 720 529.472656 719.921875 532.640625 719.765625 535.804688 C 719.609375 538.972656 719.378906 542.132812 719.066406 545.289062 C 718.757812 548.441406 718.367188 551.585938 717.902344 554.722656 C 717.4375 557.859375 716.898438 560.980469 716.277344 564.089844 C 715.660156 567.199219 714.964844 570.292969 714.195312 573.367188 C 713.425781 576.441406 712.578125 579.496094 711.660156 582.53125 C 710.738281 585.5625 709.746094 588.570312 708.675781 591.554688 C 707.609375 594.542969 706.46875 597.496094 705.253906 600.425781 C 704.042969 603.355469 702.757812 606.253906 701.402344 609.117188 C 700.046875 611.984375 698.621094 614.816406 697.128906 617.609375 C 695.632812 620.40625 694.070312 623.164062 692.441406 625.882812 C 690.8125 628.601562 689.117188 631.277344 687.355469 633.914062 C 685.59375 636.550781 683.769531 639.140625 681.882812 641.6875 C 679.992188 644.234375 678.042969 646.730469 676.03125 649.183594 C 674.019531 651.632812 671.953125 654.03125 669.824219 656.382812 C 667.695312 658.730469 665.507812 661.027344 663.265625 663.265625 C 661.027344 665.507812 658.730469 667.695312 656.382812 669.824219 C 654.03125 671.953125 651.632812 674.019531 649.183594 676.03125 C 646.730469 678.042969 644.234375 679.992188 641.6875 681.882812 C 639.140625 683.769531 636.550781 685.59375 633.914062 687.355469 C 631.277344 689.117188 628.601562 690.8125 625.882812 692.441406 C 623.164062 694.070312 620.40625 695.632812 617.609375 697.128906 C 614.816406 698.621094 611.984375 700.046875 609.117188 701.402344 C 606.253906 702.757812 603.355469 704.042969 600.425781 705.253906 C 597.5 706.46875 594.542969 707.609375 591.558594 708.675781 C 588.570312 709.746094 585.5625 710.738281 582.53125 711.660156 C 579.496094 712.578125 576.441406 713.425781 573.367188 714.195312 C 570.292969 714.964844 567.199219 715.660156 564.089844 716.277344 C 560.980469 716.898438 557.859375 717.4375 554.722656 717.902344 C 551.585938 718.367188 548.441406 718.757812 545.289062 719.066406 C 542.132812 719.378906 538.972656 719.609375 535.804688 719.765625 C 532.640625 719.921875 529.472656 720 526.300781 720 L 193.699219 720 C 190.527344 720 187.359375 719.921875 184.195312 719.765625 C 181.027344 719.609375 177.867188 719.378906 174.710938 719.066406 C 171.558594 718.757812 168.414062 718.367188 165.277344 717.902344 C 162.140625 717.4375 159.019531 716.898438 155.910156 716.277344 C 152.800781 715.660156 149.707031 714.964844 146.632812 714.195312 C 143.558594 713.425781 140.503906 712.578125 137.46875 711.660156 C 134.4375 710.738281 131.429688 709.746094 128.441406 708.675781 C 125.457031 707.609375 122.5 706.46875 119.574219 705.253906 C 116.644531 704.042969 113.746094 702.757812 110.882812 701.402344 C 108.015625 700.046875 105.183594 698.621094 102.390625 697.128906 C 99.59375 695.632812 96.835938 694.070312 94.117188 692.441406 C 91.398438 690.8125 88.722656 689.117188 86.085938 687.355469 C 83.449219 685.59375 80.859375 683.769531 78.3125 681.882812 C 75.765625 679.992188 73.269531 678.042969 70.816406 676.03125 C 68.367188 674.019531 65.96875 671.953125 63.617188 669.824219 C 61.269531 667.695312 58.972656 665.507812 56.734375 663.265625 C 54.492188 661.027344 52.304688 658.730469 50.175781 656.382812 C 48.046875 654.03125 45.980469 651.632812 43.96875 649.183594 C 41.957031 646.730469 40.007812 644.234375 38.117188 641.6875 C 36.230469 639.140625 34.40625 636.550781 32.644531 633.914062 C 30.882812 631.277344 29.1875 628.601562 27.558594 625.882812 C 25.929688 623.164062 24.367188 620.40625 22.871094 617.609375 C 21.378906 614.816406 19.953125 611.984375 18.597656 609.117188 C 17.242188 606.253906 15.957031 603.355469 14.746094 600.425781 C 13.53125 597.5 12.390625 594.542969 11.324219 591.558594 C 10.253906 588.570312 9.261719 585.5625 8.339844 582.53125 C 7.421875 579.496094 6.574219 576.441406 5.804688 573.367188 C 5.035156 570.292969 4.339844 567.199219 3.722656 564.089844 C 3.101562 560.980469 2.5625 557.859375 2.097656 554.722656 C 1.632812 551.585938 1.242188 548.441406 0.933594 545.289062 C 0.621094 542.132812 0.390625 538.972656 0.234375 535.804688 C 0.078125 532.640625 0 529.472656 0 526.300781 L 0 193.699219 C 0 190.527344 0.078125 187.359375 0.234375 184.195312 C 0.390625 181.027344 0.621094 177.867188 0.933594 174.710938 C 1.242188 171.558594 1.632812 168.414062 2.097656 165.277344 C 2.5625 162.140625 3.101562 159.019531 3.722656 155.910156 C 4.339844 152.800781 5.035156 149.707031 5.804688 146.632812 C 6.574219 143.558594 7.421875 140.503906 8.339844 137.46875 C 9.261719 134.4375 10.253906 131.429688 11.324219 128.441406 C 12.390625 125.457031 13.53125 122.5 14.746094 119.574219 C 15.957031 116.644531 17.242188 113.746094 18.597656 110.882812 C 19.953125 108.015625 21.378906 105.183594 22.871094 102.390625 C 24.367188 99.59375 25.929688 96.835938 27.558594 94.117188 C 29.1875 91.398438 30.882812 88.722656 32.644531 86.085938 C 34.40625 83.449219 36.230469 80.859375 38.117188 78.3125 C 40.007812 75.765625 41.957031 73.269531 43.96875 70.816406 C 45.980469 68.367188 48.046875 65.96875 50.175781 63.617188 C 52.304688 61.269531 54.492188 58.972656 56.734375 56.734375 C 58.972656 54.492188 61.269531 52.304688 63.617188 50.175781 C 65.96875 48.046875 68.367188 45.980469 70.816406 43.96875 C 73.269531 41.957031 75.765625 40.007812 78.3125 38.117188 C 80.859375 36.230469 83.449219 34.40625 86.085938 32.644531 C 88.722656 30.882812 91.398438 29.1875 94.117188 27.558594 C 96.835938 25.929688 99.59375 24.367188 102.390625 22.871094 C 105.183594 21.378906 108.015625 19.953125 110.882812 18.597656 C 113.746094 17.242188 116.644531 15.957031 119.574219 14.746094 C 122.5 13.53125 125.457031 12.390625 128.441406 11.324219 C 131.429688 10.253906 134.4375 9.261719 137.46875 8.339844 C 140.503906 7.421875 143.558594 6.574219 146.632812 5.804688 C 149.707031 5.035156 152.800781 4.339844 155.910156 3.722656 C 159.019531 3.101562 162.140625 2.5625 165.277344 2.097656 C 168.414062 1.632812 171.558594 1.242188 174.710938 0.933594 C 177.867188 0.621094 181.027344 0.390625 184.195312 0.234375 C 187.359375 0.078125 190.527344 0 193.699219 0 Z M 193.699219 0 " clip-rule="nonzero"/></clipPath><linearGradient x1="21.35188" gradientTransform="matrix(0, -3.050847, 3.050847, 0, 0.0000022, 719.999952)" y1="-15.462294" x2="214.648923" gradientUnits="userSpaceOnUse" y2="251.461701" id="28dff19f83"><stop stop-opacity="1" stop-color="rgb(26.852417%, 71.678162%, 55.04303%)" offset="0"/><stop stop-opacity="1" stop-color="rgb(26.712036%, 71.469116%, 54.875183%)" offset="0.00390625"/><stop stop-opacity="1" stop-color="rgb(26.571655%, 71.261597%, 54.707336%)" offset="0.0078125"/><stop stop-opacity="1" stop-color="rgb(26.431274%, 71.052551%, 54.537964%)" offset="0.0117188"/><stop stop-opacity="1" stop-color="rgb(26.292419%, 70.845032%, 54.370117%)" offset="0.015625"/><stop stop-opacity="1" stop-color="rgb(26.152039%, 70.635986%, 54.200745%)" offset="0.0195313"/><stop stop-opacity="1" stop-color="rgb(26.011658%, 70.428467%, 54.032898%)" offset="0.0234375"/><stop stop-opacity="1" stop-color="rgb(25.871277%, 70.219421%, 53.863525%)" offset="0.0273438"/><stop stop-opacity="1" stop-color="rgb(25.730896%, 70.011902%, 53.695679%)" offset="0.03125"/><stop stop-opacity="1" stop-color="rgb(25.590515%, 69.802856%, 53.526306%)" offset="0.0351563"/><stop stop-opacity="1" stop-color="rgb(25.45166%, 69.595337%, 53.358459%)" offset="0.0390625"/><stop stop-opacity="1" stop-color="rgb(25.311279%, 69.386292%, 53.189087%)" offset="0.0429688"/><stop stop-opacity="1" stop-color="rgb(25.170898%, 69.178772%, 53.02124%)" offset="0.046875"/><stop stop-opacity="1" stop-color="rgb(25.030518%, 68.969727%, 52.851868%)" offset="0.0507812"/><stop stop-opacity="1" stop-color="rgb(24.890137%, 68.762207%, 52.684021%)" offset="0.0546875"/><stop stop-opacity="1" stop-color="rgb(24.749756%, 68.553162%, 52.514648%)" offset="0.0585938"/><stop stop-opacity="1" stop-color="rgb(24.610901%, 68.345642%, 52.346802%)" offset="0.0625"/><stop stop-opacity="1" stop-color="rgb(24.47052%, 68.136597%, 52.177429%)" offset="0.0664062"/><stop stop-opacity="1" stop-color="rgb(24.330139%, 67.927551%, 52.009583%)" offset="0.0703125"/><stop stop-opacity="1" stop-color="rgb(24.189758%, 67.718506%, 51.84021%)" offset="0.0742188"/><stop stop-opacity="1" stop-color="rgb(24.049377%, 67.510986%, 51.672363%)" offset="0.078125"/><stop stop-opacity="1" stop-color="rgb(23.908997%, 67.301941%, 51.502991%)" offset="0.0820312"/><stop stop-opacity="1" stop-color="rgb(23.768616%, 67.094421%, 51.335144%)" offset="0.0859375"/><stop stop-opacity="1" stop-color="rgb(23.628235%, 66.885376%, 51.165771%)" offset="0.0898438"/><stop stop-opacity="1" stop-color="rgb(23.48938%, 66.677856%, 50.997925%)" offset="0.09375"/><stop stop-opacity="1" stop-color="rgb(23.348999%, 66.468811%, 50.828552%)" offset="0.0976562"/><stop stop-opacity="1" stop-color="rgb(23.208618%, 66.261292%, 50.660706%)" offset="0.101562"/><stop stop-opacity="1" stop-color="rgb(23.068237%, 66.052246%, 50.491333%)" offset="0.105469"/><stop stop-opacity="1" stop-color="rgb(22.927856%, 65.844727%, 50.323486%)" offset="0.109375"/><stop stop-opacity="1" stop-color="rgb(22.787476%, 65.635681%, 50.15564%)" offset="0.113281"/><stop stop-opacity="1" stop-color="rgb(22.648621%, 65.428162%, 49.987793%)" offset="0.117187"/><stop stop-opacity="1" stop-color="rgb(22.50824%, 65.219116%, 49.81842%)" offset="0.121094"/><stop stop-opacity="1" stop-color="rgb(22.367859%, 65.011597%, 49.650574%)" offset="0.125"/><stop stop-opacity="1" stop-color="rgb(22.227478%, 64.802551%, 49.481201%)" offset="0.128906"/><stop stop-opacity="1" stop-color="rgb(22.087097%, 64.595032%, 49.313354%)" offset="0.132813"/><stop stop-opacity="1" stop-color="rgb(21.946716%, 64.385986%, 49.143982%)" offset="0.136719"/><stop stop-opacity="1" stop-color="rgb(21.806335%, 64.178467%, 48.976135%)" offset="0.140625"/><stop stop-opacity="1" stop-color="rgb(21.665955%, 63.969421%, 48.806763%)" offset="0.144531"/><stop stop-opacity="1" stop-color="rgb(21.5271%, 63.761902%, 48.638916%)" offset="0.148438"/><stop stop-opacity="1" stop-color="rgb(21.386719%, 63.552856%, 48.469543%)" offset="0.152344"/><stop stop-opacity="1" stop-color="rgb(21.246338%, 63.343811%, 48.301697%)" offset="0.15625"/><stop stop-opacity="1" stop-color="rgb(21.105957%, 63.134766%, 48.132324%)" offset="0.160156"/><stop stop-opacity="1" stop-color="rgb(20.965576%, 62.927246%, 47.964478%)" offset="0.164063"/><stop stop-opacity="1" stop-color="rgb(20.825195%, 62.718201%, 47.795105%)" offset="0.167969"/><stop stop-opacity="1" stop-color="rgb(20.68634%, 62.510681%, 47.627258%)" offset="0.171875"/><stop stop-opacity="1" stop-color="rgb(20.545959%, 62.301636%, 47.457886%)" offset="0.175781"/><stop stop-opacity="1" stop-color="rgb(20.405579%, 62.094116%, 47.290039%)" offset="0.179688"/><stop stop-opacity="1" stop-color="rgb(20.265198%, 61.885071%, 47.120667%)" offset="0.183594"/><stop stop-opacity="1" stop-color="rgb(20.124817%, 61.677551%, 46.95282%)" offset="0.1875"/><stop stop-opacity="1" stop-color="rgb(19.984436%, 61.468506%, 46.783447%)" offset="0.191406"/><stop stop-opacity="1" stop-color="rgb(19.845581%, 61.260986%, 46.615601%)" offset="0.195312"/><stop stop-opacity="1" stop-color="rgb(19.7052%, 61.051941%, 46.446228%)" offset="0.199219"/><stop stop-opacity="1" stop-color="rgb(19.564819%, 60.844421%, 46.278381%)" offset="0.203125"/><stop stop-opacity="1" stop-color="rgb(19.424438%, 60.635376%, 46.109009%)" offset="0.207031"/><stop stop-opacity="1" stop-color="rgb(19.284058%, 60.427856%, 45.941162%)" offset="0.210938"/><stop stop-opacity="1" stop-color="rgb(19.143677%, 60.218811%, 45.77179%)" offset="0.214844"/><stop stop-opacity="1" stop-color="rgb(19.003296%, 60.011292%, 45.603943%)" offset="0.21875"/><stop stop-opacity="1" stop-color="rgb(18.862915%, 59.802246%, 45.436096%)" offset="0.222656"/><stop stop-opacity="1" stop-color="rgb(18.72406%, 59.594727%, 45.26825%)" offset="0.226562"/><stop stop-opacity="1" stop-color="rgb(18.583679%, 59.385681%, 45.098877%)" offset="0.230469"/><stop stop-opacity="1" stop-color="rgb(18.443298%, 59.178162%, 44.93103%)" offset="0.234375"/><stop stop-opacity="1" stop-color="rgb(18.302917%, 58.969116%, 44.761658%)" offset="0.238281"/><stop stop-opacity="1" stop-color="rgb(18.162537%, 58.760071%, 44.593811%)" offset="0.242188"/><stop stop-opacity="1" stop-color="rgb(18.022156%, 58.551025%, 44.424438%)" offset="0.246094"/><stop stop-opacity="1" stop-color="rgb(17.883301%, 58.343506%, 44.256592%)" offset="0.25"/><stop stop-opacity="1" stop-color="rgb(17.74292%, 58.13446%, 44.087219%)" offset="0.253906"/><stop stop-opacity="1" stop-color="rgb(17.602539%, 57.926941%, 43.919373%)" offset="0.257812"/><stop stop-opacity="1" stop-color="rgb(17.462158%, 57.717896%, 43.75%)" offset="0.261719"/><stop stop-opacity="1" stop-color="rgb(17.321777%, 57.510376%, 43.582153%)" offset="0.265625"/><stop stop-opacity="1" stop-color="rgb(17.181396%, 57.301331%, 43.412781%)" offset="0.269531"/><stop stop-opacity="1" stop-color="rgb(17.041016%, 57.093811%, 43.244934%)" offset="0.273438"/><stop stop-opacity="1" stop-color="rgb(16.900635%, 56.884766%, 43.075562%)" offset="0.277344"/><stop stop-opacity="1" stop-color="rgb(16.76178%, 56.677246%, 42.907715%)" offset="0.28125"/><stop stop-opacity="1" stop-color="rgb(16.621399%, 56.468201%, 42.738342%)" offset="0.285156"/><stop stop-opacity="1" stop-color="rgb(16.481018%, 56.260681%, 42.570496%)" offset="0.289062"/><stop stop-opacity="1" stop-color="rgb(16.340637%, 56.051636%, 42.401123%)" offset="0.292969"/><stop stop-opacity="1" stop-color="rgb(16.200256%, 55.844116%, 42.233276%)" offset="0.296875"/><stop stop-opacity="1" stop-color="rgb(16.059875%, 55.635071%, 42.063904%)" offset="0.300781"/><stop stop-opacity="1" stop-color="rgb(15.921021%, 55.427551%, 41.896057%)" offset="0.304688"/><stop stop-opacity="1" stop-color="rgb(15.78064%, 55.218506%, 41.726685%)" offset="0.308594"/><stop stop-opacity="1" stop-color="rgb(15.640259%, 55.010986%, 41.558838%)" offset="0.3125"/><stop stop-opacity="1" stop-color="rgb(15.499878%, 54.801941%, 41.389465%)" offset="0.316406"/><stop stop-opacity="1" stop-color="rgb(15.359497%, 54.594421%, 41.221619%)" offset="0.320312"/><stop stop-opacity="1" stop-color="rgb(15.219116%, 54.385376%, 41.052246%)" offset="0.324219"/><stop stop-opacity="1" stop-color="rgb(15.080261%, 54.176331%, 40.884399%)" offset="0.328125"/><stop stop-opacity="1" stop-color="rgb(14.93988%, 53.967285%, 40.716553%)" offset="0.332031"/><stop stop-opacity="1" stop-color="rgb(14.7995%, 53.759766%, 40.548706%)" offset="0.335938"/><stop stop-opacity="1" stop-color="rgb(14.659119%, 53.55072%, 40.379333%)" offset="0.339844"/><stop stop-opacity="1" stop-color="rgb(14.518738%, 53.343201%, 40.211487%)" offset="0.34375"/><stop stop-opacity="1" stop-color="rgb(14.378357%, 53.134155%, 40.042114%)" offset="0.347656"/><stop stop-opacity="1" stop-color="rgb(14.237976%, 52.926636%, 39.874268%)" offset="0.351562"/><stop stop-opacity="1" stop-color="rgb(14.097595%, 52.71759%, 39.704895%)" offset="0.355469"/><stop stop-opacity="1" stop-color="rgb(13.95874%, 52.510071%, 39.537048%)" offset="0.359375"/><stop stop-opacity="1" stop-color="rgb(13.818359%, 52.301025%, 39.367676%)" offset="0.363281"/><stop stop-opacity="1" stop-color="rgb(13.677979%, 52.093506%, 39.199829%)" offset="0.367187"/><stop stop-opacity="1" stop-color="rgb(13.537598%, 51.88446%, 39.030457%)" offset="0.371094"/><stop stop-opacity="1" stop-color="rgb(13.397217%, 51.676941%, 38.86261%)" offset="0.375"/><stop stop-opacity="1" stop-color="rgb(13.256836%, 51.467896%, 38.693237%)" offset="0.378906"/><stop stop-opacity="1" stop-color="rgb(13.117981%, 51.260376%, 38.525391%)" offset="0.382812"/><stop stop-opacity="1" stop-color="rgb(12.9776%, 51.051331%, 38.356018%)" offset="0.386719"/><stop stop-opacity="1" stop-color="rgb(12.837219%, 50.843811%, 38.188171%)" offset="0.390625"/><stop stop-opacity="1" stop-color="rgb(12.696838%, 50.634766%, 38.018799%)" offset="0.394531"/><stop stop-opacity="1" stop-color="rgb(12.556458%, 50.427246%, 37.850952%)" offset="0.398437"/><stop stop-opacity="1" stop-color="rgb(12.416077%, 50.218201%, 37.68158%)" offset="0.402344"/><stop stop-opacity="1" stop-color="rgb(12.275696%, 50.010681%, 37.513733%)" offset="0.40625"/><stop stop-opacity="1" stop-color="rgb(12.135315%, 49.801636%, 37.34436%)" offset="0.410156"/><stop stop-opacity="1" stop-color="rgb(11.99646%, 49.59259%, 37.176514%)" offset="0.414063"/><stop stop-opacity="1" stop-color="rgb(11.856079%, 49.383545%, 37.007141%)" offset="0.417969"/><stop stop-opacity="1" stop-color="rgb(11.715698%, 49.176025%, 36.839294%)" offset="0.421875"/><stop stop-opacity="1" stop-color="rgb(11.575317%, 48.96698%, 36.669922%)" offset="0.425781"/><stop stop-opacity="1" stop-color="rgb(11.434937%, 48.75946%, 36.502075%)" offset="0.429687"/><stop stop-opacity="1" stop-color="rgb(11.294556%, 48.550415%, 36.332703%)" offset="0.433594"/><stop stop-opacity="1" stop-color="rgb(11.155701%, 48.342896%, 36.164856%)" offset="0.4375"/><stop stop-opacity="1" stop-color="rgb(11.01532%, 48.13385%, 35.997009%)" offset="0.441406"/><stop stop-opacity="1" stop-color="rgb(10.874939%, 47.926331%, 35.829163%)" offset="0.445313"/><stop stop-opacity="1" stop-color="rgb(10.734558%, 47.717285%, 35.65979%)" offset="0.449219"/><stop stop-opacity="1" stop-color="rgb(10.594177%, 47.509766%, 35.491943%)" offset="0.453125"/><stop stop-opacity="1" stop-color="rgb(10.453796%, 47.30072%, 35.322571%)" offset="0.457031"/><stop stop-opacity="1" stop-color="rgb(10.314941%, 47.093201%, 35.154724%)" offset="0.460937"/><stop stop-opacity="1" stop-color="rgb(10.174561%, 46.884155%, 34.985352%)" offset="0.464844"/><stop stop-opacity="1" stop-color="rgb(10.03418%, 46.676636%, 34.817505%)" offset="0.46875"/><stop stop-opacity="1" stop-color="rgb(9.893799%, 46.46759%, 34.648132%)" offset="0.472656"/><stop stop-opacity="1" stop-color="rgb(9.753418%, 46.260071%, 34.480286%)" offset="0.476563"/><stop stop-opacity="1" stop-color="rgb(9.613037%, 46.051025%, 34.310913%)" offset="0.480469"/><stop stop-opacity="1" stop-color="rgb(9.472656%, 45.843506%, 34.143066%)" offset="0.484375"/><stop stop-opacity="1" stop-color="rgb(9.332275%, 45.63446%, 33.973694%)" offset="0.488281"/><stop stop-opacity="1" stop-color="rgb(9.19342%, 45.426941%, 33.805847%)" offset="0.492188"/><stop stop-opacity="1" stop-color="rgb(9.05304%, 45.217896%, 33.636475%)" offset="0.496094"/><stop stop-opacity="1" stop-color="rgb(8.912659%, 45.010376%, 33.468628%)" offset="0.5"/><stop stop-opacity="1" stop-color="rgb(8.772278%, 44.801331%, 33.299255%)" offset="0.503906"/><stop stop-opacity="1" stop-color="rgb(8.631897%, 44.592285%, 33.131409%)" offset="0.507812"/><stop stop-opacity="1" stop-color="rgb(8.491516%, 44.38324%, 32.962036%)" offset="0.511719"/><stop stop-opacity="1" stop-color="rgb(8.352661%, 44.17572%, 32.794189%)" offset="0.515625"/><stop stop-opacity="1" stop-color="rgb(8.21228%, 43.966675%, 32.624817%)" offset="0.519531"/><stop stop-opacity="1" stop-color="rgb(8.071899%, 43.759155%, 32.45697%)" offset="0.523438"/><stop stop-opacity="1" stop-color="rgb(7.931519%, 43.55011%, 32.287598%)" offset="0.527344"/><stop stop-opacity="1" stop-color="rgb(7.791138%, 43.34259%, 32.119751%)" offset="0.53125"/><stop stop-opacity="1" stop-color="rgb(7.650757%, 43.133545%, 31.950378%)" offset="0.535156"/><stop stop-opacity="1" stop-color="rgb(7.510376%, 42.926025%, 31.782532%)" offset="0.539063"/><stop stop-opacity="1" stop-color="rgb(7.369995%, 42.71698%, 31.613159%)" offset="0.542969"/><stop stop-opacity="1" stop-color="rgb(7.23114%, 42.50946%, 31.445312%)" offset="0.546875"/><stop stop-opacity="1" stop-color="rgb(7.090759%, 42.300415%, 31.277466%)" offset="0.550781"/><stop stop-opacity="1" stop-color="rgb(6.950378%, 42.092896%, 31.109619%)" offset="0.554688"/><stop stop-opacity="1" stop-color="rgb(6.809998%, 41.88385%, 30.940247%)" offset="0.558594"/><stop stop-opacity="1" stop-color="rgb(6.669617%, 41.676331%, 30.7724%)" offset="0.5625"/><stop stop-opacity="1" stop-color="rgb(6.529236%, 41.467285%, 30.603027%)" offset="0.566406"/><stop stop-opacity="1" stop-color="rgb(6.390381%, 41.259766%, 30.435181%)" offset="0.570313"/><stop stop-opacity="1" stop-color="rgb(6.25%, 41.05072%, 30.265808%)" offset="0.574219"/><stop stop-opacity="1" stop-color="rgb(6.109619%, 40.843201%, 30.097961%)" offset="0.578125"/><stop stop-opacity="1" stop-color="rgb(5.969238%, 40.634155%, 29.928589%)" offset="0.582031"/><stop stop-opacity="1" stop-color="rgb(5.828857%, 40.426636%, 29.760742%)" offset="0.585938"/><stop stop-opacity="1" stop-color="rgb(5.688477%, 40.21759%, 29.59137%)" offset="0.589844"/><stop stop-opacity="1" stop-color="rgb(5.549622%, 40.008545%, 29.423523%)" offset="0.59375"/><stop stop-opacity="1" stop-color="rgb(5.409241%, 39.7995%, 29.25415%)" offset="0.597656"/><stop stop-opacity="1" stop-color="rgb(5.26886%, 39.59198%, 29.086304%)" offset="0.601563"/><stop stop-opacity="1" stop-color="rgb(5.128479%, 39.382935%, 28.916931%)" offset="0.605469"/><stop stop-opacity="1" stop-color="rgb(4.988098%, 39.175415%, 28.749084%)" offset="0.609375"/><stop stop-opacity="1" stop-color="rgb(4.847717%, 38.96637%, 28.579712%)" offset="0.613281"/><stop stop-opacity="1" stop-color="rgb(4.707336%, 38.75885%, 28.411865%)" offset="0.617188"/><stop stop-opacity="1" stop-color="rgb(4.566956%, 38.549805%, 28.242493%)" offset="0.621094"/><stop stop-opacity="1" stop-color="rgb(4.428101%, 38.342285%, 28.074646%)" offset="0.625"/><stop stop-opacity="1" stop-color="rgb(4.28772%, 38.13324%, 27.905273%)" offset="0.628906"/><stop stop-opacity="1" stop-color="rgb(4.147339%, 37.92572%, 27.737427%)" offset="0.632813"/><stop stop-opacity="1" stop-color="rgb(4.006958%, 37.716675%, 27.568054%)" offset="0.636719"/><stop stop-opacity="1" stop-color="rgb(3.866577%, 37.509155%, 27.400208%)" offset="0.640625"/><stop stop-opacity="1" stop-color="rgb(3.726196%, 37.30011%, 27.230835%)" offset="0.644531"/><stop stop-opacity="1" stop-color="rgb(3.587341%, 37.09259%, 27.062988%)" offset="0.648438"/><stop stop-opacity="1" stop-color="rgb(3.44696%, 36.883545%, 26.895142%)" offset="0.652344"/><stop stop-opacity="1" stop-color="rgb(3.30658%, 36.676025%, 26.727295%)" offset="0.65625"/><stop stop-opacity="1" stop-color="rgb(3.166199%, 36.46698%, 26.557922%)" offset="0.660156"/><stop stop-opacity="1" stop-color="rgb(3.025818%, 36.25946%, 26.390076%)" offset="0.664063"/><stop stop-opacity="1" stop-color="rgb(2.885437%, 36.050415%, 26.220703%)" offset="0.667969"/><stop stop-opacity="1" stop-color="rgb(2.745056%, 35.842896%, 26.052856%)" offset="0.671875"/><stop stop-opacity="1" stop-color="rgb(2.604675%, 35.63385%, 25.883484%)" offset="0.675781"/><stop stop-opacity="1" stop-color="rgb(2.46582%, 35.424805%, 25.715637%)" offset="0.679688"/><stop stop-opacity="1" stop-color="rgb(2.325439%, 35.215759%, 25.546265%)" offset="0.683594"/><stop stop-opacity="1" stop-color="rgb(2.185059%, 35.00824%, 25.378418%)" offset="0.6875"/><stop stop-opacity="1" stop-color="rgb(2.044678%, 34.799194%, 25.209045%)" offset="0.691406"/><stop stop-opacity="1" stop-color="rgb(1.904297%, 34.591675%, 25.041199%)" offset="0.695313"/><stop stop-opacity="1" stop-color="rgb(1.763916%, 34.382629%, 24.871826%)" offset="0.699219"/><stop stop-opacity="1" stop-color="rgb(1.625061%, 34.17511%, 24.703979%)" offset="0.703125"/><stop stop-opacity="1" stop-color="rgb(1.48468%, 33.966064%, 24.534607%)" offset="0.707031"/><stop stop-opacity="1" stop-color="rgb(1.344299%, 33.758545%, 24.36676%)" offset="0.710938"/><stop stop-opacity="1" stop-color="rgb(1.203918%, 33.5495%, 24.197388%)" offset="0.714844"/><stop stop-opacity="1" stop-color="rgb(1.063538%, 33.34198%, 24.029541%)" offset="0.71875"/><stop stop-opacity="1" stop-color="rgb(0.923157%, 33.132935%, 23.860168%)" offset="0.722656"/><stop stop-opacity="1" stop-color="rgb(0.784302%, 32.925415%, 23.692322%)" offset="0.726563"/><stop stop-opacity="1" stop-color="rgb(0.643921%, 32.71637%, 23.522949%)" offset="0.730469"/><stop stop-opacity="1" stop-color="rgb(0.50354%, 32.50885%, 23.355103%)" offset="0.734375"/><stop stop-opacity="1" stop-color="rgb(0.363159%, 32.299805%, 23.18573%)" offset="0.738281"/><stop stop-opacity="1" stop-color="rgb(0.222778%, 32.092285%, 23.017883%)" offset="0.742188"/><stop stop-opacity="1" stop-color="rgb(0.111389%, 31.925964%, 22.883606%)" offset="0.75"/><stop stop-opacity="1" stop-color="rgb(0%, 31.759644%, 22.749329%)" offset="1"/></linearGradient><clipPath id="338656e3ff"><path d="M 162 119.484375 L 295 119.484375 L 295 600.234375 L 162 600.234375 Z M 162 119.484375 " clip-rule="nonzero"/></clipPath><clipPath id="0045df2c3a"><path d="M 294 119.484375 L 427 119.484375 L 427 600.234375 L 294 600.234375 Z M 294 119.484375 " clip-rule="nonzero"/></clipPath><clipPath id="776de87b1e"><path d="M 426 119.484375 L 558.402344 119.484375 L 558.402344 600.234375 L 426 600.234375 Z M 426 119.484375 " clip-rule="nonzero"/></clipPath></defs><g clip-path="url(#7395413493)"><rect x="-72" fill="url(#28dff19f83)" width="864" y="-72" height="863.999995"/></g><g clip-path="url(#338656e3ff)"><path fill="#ffffff" d="M 162.636719 600.515625 L 294.476562 440.019531 L 294.476562 119.484375 L 162.039062 280.722656 Z M 162.636719 600.515625 " fill-opacity="1" fill-rule="nonzero"/></g><g clip-path="url(#0045df2c3a)"><path fill="#4abf93" d="M 294.476562 119.484375 L 426.574219 279.976562 L 426.574219 600.515625 L 294.476562 439.273438 Z M 294.476562 119.484375 " fill-opacity="1" fill-rule="nonzero"/></g><g clip-path="url(#776de87b1e)"><path fill="#bdffdf" d="M 427.171875 600.515625 L 559.011719 440.019531 L 559.011719 119.484375 L 426.574219 280.722656 Z M 427.171875 600.515625 " fill-opacity="1" fill-rule="nonzero"/></g></svg>